<?xml version="1.0" encoding="UTF-8"?>
<svg version="1.1" xmlns="http://www.w3.org/2000/svg" width="84" height="84">
<path d="M0 0 C1.04929687 -0.00128906 2.09859375 -0.00257812 3.1796875 -0.00390625 C4.28054687 -0.00003906 5.38140625 0.00382813 6.515625 0.0078125 C7.60101562 0.00394531 8.68640625 0.00007812 9.8046875 -0.00390625 C11.38636719 -0.00197266 11.38636719 -0.00197266 13 0 C13.96131836 0.00112793 14.92263672 0.00225586 15.91308594 0.00341797 C18.765625 0.1328125 18.765625 0.1328125 21.93847656 0.70361328 C24.8345675 1.36262992 24.8345675 1.36262992 27.765625 0.1328125 C31.71962393 -0.12572121 35.67907302 -0.09856681 39.640625 -0.1171875 C40.72988281 -0.1378125 41.81914063 -0.1584375 42.94140625 -0.1796875 C43.99457031 -0.18484375 45.04773437 -0.19 46.1328125 -0.1953125 C47.57309814 -0.20933105 47.57309814 -0.20933105 49.04248047 -0.22363281 C52.27344483 0.19928345 54.14391065 1.22852869 56.765625 3.1328125 C57.44830638 4.45801753 58.1163291 5.79093432 58.765625 7.1328125 C59.755625 7.6278125 59.755625 7.6278125 60.765625 8.1328125 C63.37782118 9.43891059 63.72448604 10.42265034 64.765625 13.1328125 C65.00854492 15.95776367 65.00854492 15.95776367 64.99609375 19.17578125 C64.99416016 20.33142578 64.99222656 21.48707031 64.99023438 22.67773438 C64.97798828 23.87978516 64.96574219 25.08183594 64.953125 26.3203125 C64.9521582 28.14079102 64.9521582 28.14079102 64.95117188 29.99804688 C64.90587212 38.99256538 64.90587212 38.99256538 63.765625 40.1328125 C64.00445791 41.7060421 64.24552578 43.27894979 64.49462891 44.85058594 C65.0622257 49.63067135 64.95021146 54.4504684 64.953125 59.2578125 C64.96537109 60.32902344 64.97761719 61.40023437 64.99023438 62.50390625 C64.99216797 63.53902344 64.99410156 64.57414062 64.99609375 65.640625 C65.00020264 66.57535645 65.00431152 67.51008789 65.00854492 68.47314453 C64.74003205 71.4130231 64.13782018 73.52011184 62.765625 76.1328125 C57.38638263 78.431279 52.11286879 78.43794906 46.328125 78.3828125 C45.11672852 78.39441406 45.11672852 78.39441406 43.88085938 78.40625 C39.87793373 78.39334774 36.39067868 78.12994627 32.54296875 76.9921875 C28.23104563 76.01119155 26.81895575 76.64028718 22.765625 78.1328125 C19.5758895 78.43502069 16.40493334 78.41252766 13.203125 78.3828125 C11.94725586 78.39441406 11.94725586 78.39441406 10.66601562 78.40625 C6.30443034 78.39243659 2.66742924 78.31543096 -1.234375 76.1328125 C-2.59265471 74.48641285 -3.92691751 72.81985443 -5.234375 71.1328125 C-5.935625 70.7821875 -6.636875 70.4315625 -7.359375 70.0703125 C-9.87638128 68.81180936 -10.22163431 67.74306551 -11.234375 65.1328125 C-11.47729492 62.35546875 -11.47729492 62.35546875 -11.46484375 59.1953125 C-11.46291016 58.05320313 -11.46097656 56.91109375 -11.45898438 55.734375 C-11.44673828 54.54585937 -11.43449219 53.35734375 -11.421875 52.1328125 C-11.42123047 50.94429687 -11.42058594 49.75578125 -11.41992188 48.53125 C-11.37498661 39.68399563 -11.37498661 39.68399563 -10.66137695 36.88671875 C-10.01167173 35.03980507 -10.01167173 35.03980507 -11.234375 33.1328125 C-11.53344641 28.51349983 -11.51247574 23.88566015 -11.546875 19.2578125 C-11.57587891 17.96488281 -11.60488281 16.67195313 -11.63476562 15.33984375 C-11.64314453 14.09847656 -11.65152344 12.85710938 -11.66015625 11.578125 C-11.67473877 10.43875488 -11.68932129 9.29938477 -11.7043457 8.12548828 C-11.13420587 4.49495632 -10.07503844 3.37956411 -7.234375 1.1328125 C-4.68028464 -0.14423268 -2.85680221 0.00336774 0 0 Z M5.765625 17.1328125 C5.435625 18.4528125 5.105625 19.7728125 4.765625 21.1328125 C5.36375 21.3596875 5.961875 21.5865625 6.578125 21.8203125 C9.33189407 23.47257394 10.13087682 25.4082322 11.765625 28.1328125 C13.81566455 29.32513863 13.81566455 29.32513863 15.765625 30.1328125 C17.02800231 32.65756712 16.86418904 34.44481716 16.828125 37.2578125 C16.81910156 38.16789062 16.81007813 39.07796875 16.80078125 40.015625 C16.78917969 40.71429688 16.77757812 41.41296875 16.765625 42.1328125 C15.651875 42.473125 15.651875 42.473125 14.515625 42.8203125 C11.23154795 44.38771291 9.92691655 46.25109044 7.765625 49.1328125 C6.775625 49.7928125 5.785625 50.4528125 4.765625 51.1328125 C4.765625 52.1228125 4.765625 53.1128125 4.765625 54.1328125 C9.6285102 53.71599377 11.63048807 51.76297105 14.765625 48.1328125 C15.78218581 46.47619489 16.78627576 44.81169691 17.765625 43.1328125 C20.81546496 41.60789252 23.4079619 41.89718702 26.765625 42.1328125 C28.390625 43.3203125 28.390625 43.3203125 29.765625 45.1328125 C31.003125 46.339375 31.003125 46.339375 32.265625 47.5703125 C34.765625 50.1328125 34.765625 50.1328125 36.328125 52.4453125 C36.8025 53.0021875 37.276875 53.5590625 37.765625 54.1328125 C39.085625 54.1328125 40.405625 54.1328125 41.765625 54.1328125 C41.21858086 50.30350354 39.57517034 48.69445678 36.765625 46.1328125 C36.270625 45.6171875 35.775625 45.1015625 35.265625 44.5703125 C33.7704327 43.01098337 33.7704327 43.01098337 31.578125 41.9453125 C29.41244112 39.77962862 29.46125715 39.10479621 29.390625 36.1328125 C29.45347955 32.81409202 29.80506791 32.07364814 31.765625 29.1328125 C32.7246875 28.6996875 32.7246875 28.6996875 33.703125 28.2578125 C36.43668229 26.76678125 37.20690481 24.77585977 38.765625 22.1328125 C39.755625 21.8028125 40.745625 21.4728125 41.765625 21.1328125 C41.765625 20.1428125 41.765625 19.1528125 41.765625 18.1328125 C40.775625 17.8028125 39.785625 17.4728125 38.765625 17.1328125 C37.899375 18.3084375 37.899375 18.3084375 37.015625 19.5078125 C34.765625 22.1328125 34.765625 22.1328125 32.703125 23.1328125 C30.50488549 24.02945659 30.50488549 24.02945659 29.453125 26.6953125 C27.765625 29.1328125 27.765625 29.1328125 24.328125 30.0078125 C21.43342918 30.10938077 19.45076874 30.09946425 16.765625 29.1328125 C16.70375 28.3696875 16.641875 27.6065625 16.578125 26.8203125 C16.01874518 23.94954651 16.01874518 23.94954651 13.453125 22.5703125 C12.56625 22.0959375 11.679375 21.6215625 10.765625 21.1328125 C9.41364642 19.81838888 8.07536498 18.4893289 6.765625 17.1328125 C6.435625 17.1328125 6.105625 17.1328125 5.765625 17.1328125 Z " fill="#629DCB" transform="translate(15.234375,2.8671875)"/>
<path d="M0 0 C1.04929687 -0.00128906 2.09859375 -0.00257812 3.1796875 -0.00390625 C4.28054687 -0.00003906 5.38140625 0.00382813 6.515625 0.0078125 C7.60101562 0.00394531 8.68640625 0.00007812 9.8046875 -0.00390625 C11.38636719 -0.00197266 11.38636719 -0.00197266 13 0 C13.96131836 0.00112793 14.92263672 0.00225586 15.91308594 0.00341797 C18.765625 0.1328125 18.765625 0.1328125 21.93847656 0.70361328 C24.8345675 1.36262992 24.8345675 1.36262992 27.765625 0.1328125 C31.71962393 -0.12572121 35.67907302 -0.09856681 39.640625 -0.1171875 C40.72988281 -0.1378125 41.81914063 -0.1584375 42.94140625 -0.1796875 C43.99457031 -0.18484375 45.04773437 -0.19 46.1328125 -0.1953125 C47.57309814 -0.20933105 47.57309814 -0.20933105 49.04248047 -0.22363281 C52.27344483 0.19928345 54.14391065 1.22852869 56.765625 3.1328125 C57.44830638 4.45801753 58.1163291 5.79093432 58.765625 7.1328125 C59.755625 7.6278125 59.755625 7.6278125 60.765625 8.1328125 C63.37782118 9.43891059 63.72448604 10.42265034 64.765625 13.1328125 C65.00854492 15.95776367 65.00854492 15.95776367 64.99609375 19.17578125 C64.99416016 20.33142578 64.99222656 21.48707031 64.99023438 22.67773438 C64.97798828 23.87978516 64.96574219 25.08183594 64.953125 26.3203125 C64.9521582 28.14079102 64.9521582 28.14079102 64.95117188 29.99804688 C64.90587212 38.99256538 64.90587212 38.99256538 63.765625 40.1328125 C64.00445791 41.7060421 64.24552578 43.27894979 64.49462891 44.85058594 C65.0622257 49.63067135 64.95021146 54.4504684 64.953125 59.2578125 C64.96537109 60.32902344 64.97761719 61.40023437 64.99023438 62.50390625 C64.99216797 63.53902344 64.99410156 64.57414062 64.99609375 65.640625 C65.00020264 66.57535645 65.00431152 67.51008789 65.00854492 68.47314453 C64.74003205 71.4130231 64.13782018 73.52011184 62.765625 76.1328125 C57.38638263 78.431279 52.11286879 78.43794906 46.328125 78.3828125 C45.11672852 78.39441406 45.11672852 78.39441406 43.88085938 78.40625 C39.87793373 78.39334774 36.39067868 78.12994627 32.54296875 76.9921875 C28.23104563 76.01119155 26.81895575 76.64028718 22.765625 78.1328125 C19.5758895 78.43502069 16.40493334 78.41252766 13.203125 78.3828125 C11.94725586 78.39441406 11.94725586 78.39441406 10.66601562 78.40625 C6.30443034 78.39243659 2.66742924 78.31543096 -1.234375 76.1328125 C-2.59265471 74.48641285 -3.92691751 72.81985443 -5.234375 71.1328125 C-5.935625 70.7821875 -6.636875 70.4315625 -7.359375 70.0703125 C-9.87638128 68.81180936 -10.22163431 67.74306551 -11.234375 65.1328125 C-11.47729492 62.35546875 -11.47729492 62.35546875 -11.46484375 59.1953125 C-11.46291016 58.05320313 -11.46097656 56.91109375 -11.45898438 55.734375 C-11.44673828 54.54585937 -11.43449219 53.35734375 -11.421875 52.1328125 C-11.42123047 50.94429687 -11.42058594 49.75578125 -11.41992188 48.53125 C-11.37498661 39.68399563 -11.37498661 39.68399563 -10.66137695 36.88671875 C-10.01167173 35.03980507 -10.01167173 35.03980507 -11.234375 33.1328125 C-11.53344641 28.51349983 -11.51247574 23.88566015 -11.546875 19.2578125 C-11.57587891 17.96488281 -11.60488281 16.67195313 -11.63476562 15.33984375 C-11.64314453 14.09847656 -11.65152344 12.85710938 -11.66015625 11.578125 C-11.67473877 10.43875488 -11.68932129 9.29938477 -11.7043457 8.12548828 C-11.13420587 4.49495632 -10.07503844 3.37956411 -7.234375 1.1328125 C-4.68028464 -0.14423268 -2.85680221 0.00336774 0 0 Z M-7.234375 3.1328125 C-7.234375 12.0428125 -7.234375 20.9528125 -7.234375 30.1328125 C-4.924375 30.1328125 -2.614375 30.1328125 -0.234375 30.1328125 C-0.234375 32.4428125 -0.234375 34.7528125 -0.234375 37.1328125 C-2.544375 37.1328125 -4.854375 37.1328125 -7.234375 37.1328125 C-7.234375 46.0428125 -7.234375 54.9528125 -7.234375 64.1328125 C-4.924375 64.1328125 -2.614375 64.1328125 -0.234375 64.1328125 C-0.234375 66.1128125 -0.234375 68.0928125 -0.234375 70.1328125 C8.675625 70.1328125 17.585625 70.1328125 26.765625 70.1328125 C26.765625 68.1528125 26.765625 66.1728125 26.765625 64.1328125 C29.075625 64.1328125 31.385625 64.1328125 33.765625 64.1328125 C33.765625 66.1128125 33.765625 68.0928125 33.765625 70.1328125 C42.675625 70.1328125 51.585625 70.1328125 60.765625 70.1328125 C60.765625 61.2228125 60.765625 52.3128125 60.765625 43.1328125 C58.455625 43.1328125 56.145625 43.1328125 53.765625 43.1328125 C53.765625 41.1528125 53.765625 39.1728125 53.765625 37.1328125 C56.075625 37.1328125 58.385625 37.1328125 60.765625 37.1328125 C60.765625 28.2228125 60.765625 19.3128125 60.765625 10.1328125 C58.455625 10.1328125 56.145625 10.1328125 53.765625 10.1328125 C53.765625 7.8228125 53.765625 5.5128125 53.765625 3.1328125 C44.855625 3.1328125 35.945625 3.1328125 26.765625 3.1328125 C26.765625 5.4428125 26.765625 7.7528125 26.765625 10.1328125 C24.455625 10.1328125 22.145625 10.1328125 19.765625 10.1328125 C19.765625 7.8228125 19.765625 5.5128125 19.765625 3.1328125 C10.855625 3.1328125 1.945625 3.1328125 -7.234375 3.1328125 Z " fill="#070707" transform="translate(15.234375,2.8671875)"/>
<path d="M0 0 C8.91 0 17.82 0 27 0 C27 2.31 27 4.62 27 7 C29.31 7 31.62 7 34 7 C34 4.69 34 2.38 34 0 C42.91 0 51.82 0 61 0 C61 2.31 61 4.62 61 7 C62.98 7 64.96 7 67 7 C67 10.63 67 14.26 67 18 C65.515 18.495 65.515 18.495 64 19 C63.505 20.485 63.505 20.485 63 22 C62.34 22 61.68 22 61 22 C60.7525 22.61875 60.505 23.2375 60.25 23.875 C58.76259631 26.40358627 57.56321991 26.71839004 55 28 C53.90833725 29.93330603 53.90833725 29.93330603 53 32 C51.734375 33.6484375 51.734375 33.6484375 50 35 C47.73828125 35.07421875 47.73828125 35.07421875 45.3125 34.6875 C44.50425781 34.56761719 43.69601563 34.44773438 42.86328125 34.32421875 C42.24839844 34.21722656 41.63351563 34.11023437 41 34 C41 31.69 41 29.38 41 27 C42.98 27 44.96 27 47 27 C47 24.69 47 22.38 47 20 C49.31 20 51.62 20 54 20 C54 15.71 54 11.42 54 7 C49.71 7 45.42 7 41 7 C41 8.98 41 10.96 41 13 C38.69 13 36.38 13 34 13 C34 15.31 34 17.62 34 20 C31.69 20 29.38 20 27 20 C27 17.69 27 15.38 27 13 C24.69 13 22.38 13 20 13 C20 11.02 20 9.04 20 7 C15.71 7 11.42 7 7 7 C7 11.29 7 15.58 7 20 C9.31 20 11.62 20 14 20 C14 22.31 14 24.62 14 27 C15.98 27 17.96 27 20 27 C20 29.31 20 31.62 20 34 C18.02 34 16.04 34 14 34 C14 35.98 14 37.96 14 40 C11.36 40 8.72 40 6 40 C6.12375 41.216875 6.2475 42.43375 6.375 43.6875 C6.5859375 45.76171875 6.5859375 45.76171875 6 48 C3.03 50.475 3.03 50.475 0 53 C0 46.73 0 40.46 0 34 C2.31 34 4.62 34 7 34 C7 31.69 7 29.38 7 27 C4.69 27 2.38 27 0 27 C0 18.09 0 9.18 0 0 Z " fill="#99CFF1" transform="translate(8,6)"/>
<path d="M0 0 C4.29 0 8.58 0 13 0 C13 1.98 13 3.96 13 6 C15.31 6 17.62 6 20 6 C20 8.31 20 10.62 20 13 C22.31 13 24.62 13 27 13 C27 10.69 27 8.38 27 6 C29.31 6 31.62 6 34 6 C34 4.02 34 2.04 34 0 C38.29 0 42.58 0 47 0 C47 4.29 47 8.58 47 13 C44.69 13 42.38 13 40 13 C40 15.31 40 17.62 40 20 C38.02 20 36.04 20 34 20 C34 22.31 34 24.62 34 27 C35.98 27 37.96 27 40 27 C40.495 29.97 40.495 29.97 41 33 C43.97 33.495 43.97 33.495 47 34 C47 38.29 47 42.58 47 47 C42.71 47 38.42 47 34 47 C34 44.69 34 42.38 34 40 C31.69 40 29.38 40 27 40 C27 37.69 27 35.38 27 33 C24.69 33 22.38 33 20 33 C20 35.31 20 37.62 20 40 C17.69 40 15.38 40 13 40 C13 42.31 13 44.62 13 47 C8.71 47 4.42 47 0 47 C0 42.71 0 38.42 0 34 C2.97 33.505 2.97 33.505 6 33 C6.33 31.02 6.66 29.04 7 27 C8.98 27 10.96 27 13 27 C13 24.69 13 22.38 13 20 C11.02 20 9.04 20 7 20 C7 17.69 7 15.38 7 13 C4.69 13 2.38 13 0 13 C0 8.71 0 4.42 0 0 Z M6 7 C5.67 8.32 5.34 9.64 5 11 C5.598125 11.226875 6.19625 11.45375 6.8125 11.6875 C9.56626907 13.33976144 10.36525182 15.2754197 12 18 C14.05003955 19.19232613 14.05003955 19.19232613 16 20 C17.26237731 22.52475462 17.09856404 24.31200466 17.0625 27.125 C17.05347656 28.03507812 17.04445313 28.94515625 17.03515625 29.8828125 C17.02355469 30.58148438 17.01195312 31.28015625 17 32 C15.88625 32.3403125 15.88625 32.3403125 14.75 32.6875 C11.46592295 34.25490041 10.16129155 36.11827794 8 39 C7.01 39.66 6.02 40.32 5 41 C5 41.99 5 42.98 5 44 C9.8628852 43.58318127 11.86486307 41.63015855 15 38 C16.01656081 36.34338239 17.02065076 34.67888441 18 33 C21.04983996 31.47508002 23.6423369 31.76437452 27 32 C28.625 33.1875 28.625 33.1875 30 35 C31.2375 36.2065625 31.2375 36.2065625 32.5 37.4375 C35 40 35 40 36.5625 42.3125 C37.036875 42.869375 37.51125 43.42625 38 44 C39.32 44 40.64 44 42 44 C41.45295586 40.17069104 39.80954534 38.56164428 37 36 C36.505 35.484375 36.01 34.96875 35.5 34.4375 C34.0048077 32.87817087 34.0048077 32.87817087 31.8125 31.8125 C29.64681612 29.64681612 29.69563215 28.97198371 29.625 26 C29.68785455 22.68127952 30.03944291 21.94083564 32 19 C32.9590625 18.566875 32.9590625 18.566875 33.9375 18.125 C36.67105729 16.63396875 37.44127981 14.64304727 39 12 C39.99 11.67 40.98 11.34 42 11 C42 10.01 42 9.02 42 8 C41.01 7.67 40.02 7.34 39 7 C38.13375 8.175625 38.13375 8.175625 37.25 9.375 C35 12 35 12 32.9375 13 C30.73926049 13.89664409 30.73926049 13.89664409 29.6875 16.5625 C28 19 28 19 24.5625 19.875 C21.66780418 19.97656827 19.68514374 19.96665175 17 19 C16.938125 18.236875 16.87625 17.47375 16.8125 16.6875 C16.25312018 13.81673401 16.25312018 13.81673401 13.6875 12.4375 C12.800625 11.963125 11.91375 11.48875 11 11 C9.64802142 9.68557638 8.30973998 8.3565164 7 7 C6.67 7 6.34 7 6 7 Z " fill="#070706" transform="translate(15,13)"/>
<path d="M0 0 C0.33 0 0.66 0 1 0 C1 8.91 1 17.82 1 27 C-1.31 27 -3.62 27 -6 27 C-6 28.98 -6 30.96 -6 33 C-3.69 33 -1.38 33 1 33 C1 41.91 1 50.82 1 60 C-7.25 60 -15.5 60 -24 60 C-18 53 -18 53 -15.671875 51.046875 C-13.21935993 48.0442631 -13.32734433 44.96955932 -13.25 41.25 C-13.22035156 40.55261719 -13.19070312 39.85523438 -13.16015625 39.13671875 C-13.08981542 37.42509187 -13.04260054 35.71254185 -13 34 C-13.969375 34.020625 -14.93875 34.04125 -15.9375 34.0625 C-19 34 -19 34 -20 33 C-20.04080783 31.00041636 -20.04254356 28.99954746 -20 27 C-19.01 27.33 -18.02 27.66 -17 28 C-16.67 27.01 -16.34 26.02 -16 25 C-14.328125 23.38671875 -14.328125 23.38671875 -12.25 21.6875 C-9.62576677 19.47242142 -7.27884103 17.30117972 -5.125 14.625 C-3 12 -3 12 -1 11 C-0.5316735 8.41394668 -0.5316735 8.41394668 -0.375 5.4375 C-0.30023438 4.42558594 -0.22546875 3.41367187 -0.1484375 2.37109375 C-0.09945312 1.58863281 -0.05046875 0.80617188 0 0 Z " fill="#81B2D2" transform="translate(75,13)"/>
<path d="M0 0 C2.31 0 4.62 0 7 0 C7 2.31 7 4.62 7 7 C11.29 7 15.58 7 20 7 C18.10523955 10.78952091 16.45852168 12.8106895 13.5 15.75 C12.7059375 16.54921875 11.911875 17.3484375 11.09375 18.171875 C9 20 9 20 7 20 C7 18.02 7 16.04 7 14 C4.69 14 2.38 14 0 14 C0 15.98 0 17.96 0 20 C-5.28 20 -10.56 20 -16 20 C-15.505 18.515 -15.505 18.515 -15 17 C-14.34 17 -13.68 17 -13 17 C-12.67 16.01 -12.34 15.02 -12 14 C-11.34 14 -10.68 14 -10 14 C-9.67 13.01 -9.34 12.02 -9 11 C-7.5625 9.3125 -7.5625 9.3125 -6 8 C-5.34 8 -4.68 8 -4 8 C-4 7.34 -4 6.68 -4 6 C-2.37373596 4.61767557 -0.7074998 3.28062485 1 2 C0.67 1.34 0.34 0.68 0 0 Z " fill="#64A4D6" transform="translate(42,53)"/>
<path d="M0 0 C2.31 0 4.62 0 7 0 C7 1.98 7 3.96 7 6 C15.91 6 24.82 6 34 6 C33.67 7.32 33.34 8.64 33 10 C30.03345697 10.85473786 27.38792396 11.12848819 24.3046875 11.1328125 C23.42425781 11.13410156 22.54382813 11.13539062 21.63671875 11.13671875 C20.72535156 11.13285156 19.81398437 11.12898438 18.875 11.125 C17.95589844 11.12886719 17.03679688 11.13273437 16.08984375 11.13671875 C15.21199219 11.13542969 14.33414063 11.13414063 13.4296875 11.1328125 C12.62772949 11.13168457 11.82577148 11.13055664 10.99951172 11.12939453 C9 11 9 11 7 10 C7 9.34 7 8.68 7 8 C4.525 7.01 4.525 7.01 2 6 C1.690625 6.639375 1.38125 7.27875 1.0625 7.9375 C0 10 0 10 -1 11 C-4.90707612 11.36452969 -8.82822024 11.37168309 -12.75 11.4375 C-14.39742187 11.50614258 -14.39742187 11.50614258 -16.078125 11.57617188 C-24.06144033 11.6875895 -24.06144033 11.6875895 -26.79956055 9.68164062 C-28.12109375 8.05859375 -28.12109375 8.05859375 -30 5 C-32.14980497 3.62745412 -32.14980497 3.62745412 -34 3 C-34 2.34 -34 1.68 -34 1 C-31.69 1 -29.38 1 -27 1 C-27 2.65 -27 4.3 -27 6 C-18.09 6 -9.18 6 0 6 C0 4.02 0 2.04 0 0 Z " fill="#23282B" transform="translate(42,67)"/>
<path d="M0 0 C0.66 0.33 1.32 0.66 2 1 C1.34 4.3 0.68 7.6 0 11 C0.66 11 1.32 11 2 11 C2 11.66 2 12.32 2 13 C2.9590625 13.37125 2.9590625 13.37125 3.9375 13.75 C4.618125 14.1625 5.29875 14.575 6 15 C6.144375 15.66 6.28875 16.32 6.4375 17 C6.623125 17.66 6.80875 18.32 7 19 C9.47130918 20.15521502 9.47130918 20.15521502 12 21 C12.495 21.99 12.495 21.99 13 23 C13.33 20.69 13.66 18.38 14 16 C14.33 16 14.66 16 15 16 C15 20.29 15 24.58 15 29 C10.71 29 6.42 29 2 29 C2 26.69 2 24.38 2 22 C-0.31 22 -2.62 22 -5 22 C-5 19.69 -5 17.38 -5 15 C-7.31 15 -9.62 15 -12 15 C-12 17.31 -12 19.62 -12 22 C-14.31 22 -16.62 22 -19 22 C-19 24.31 -19 26.62 -19 29 C-23.29 29 -27.58 29 -32 29 C-32 24.71 -32 20.42 -32 16 C-31.67 16 -31.34 16 -31 16 C-31 19.96 -31 23.92 -31 28 C-30.34 28 -29.68 28 -29 28 C-28.9175 26.88625 -28.835 25.7725 -28.75 24.625 C-28.5025 23.42875 -28.255 22.2325 -28 21 C-26.1875 19.875 -26.1875 19.875 -24 19 C-23.38125 18.21625 -22.7625 17.4325 -22.125 16.625 C-19.7377081 13.67599236 -17.21713548 11.97415131 -14 10 C-14.125 11.75 -14.125 11.75 -15 14 C-16.96498322 15.38442 -18.97048465 16.71203834 -21 18 C-24.84136519 21.44611473 -24.84136519 21.44611473 -27 26 C-23.88079662 25.66579964 -23.04525746 25.05211466 -20.9375 22.625 C-20.298125 21.75875 -19.65875 20.8925 -19 20 C-18.0206121 18.97980427 -17.02104551 17.97850195 -16 17 C-15.4225 16.278125 -14.845 15.55625 -14.25 14.8125 C-12 13 -12 13 -8.5 12.5 C-4.38142194 13.08836829 -3.56628719 13.83491247 -1 17 C-0.13375 17.845625 0.7325 18.69125 1.625 19.5625 C4 22 4 22 6 25 C8.05925139 25.72382467 8.05925139 25.72382467 10 26 C9.18168052 22.79968558 9.18168052 22.79968558 6.4375 20.4375 C5.633125 19.633125 4.82875 18.82875 4 18 C4 17.34 4 16.68 4 16 C3.21625 15.71125 2.4325 15.4225 1.625 15.125 C-1 14 -1 14 -3 12 C-3.56872038 4.9478673 -3.56872038 4.9478673 -1.5 1.5 C-1.005 1.005 -0.51 0.51 0 0 Z " fill="#040404" transform="translate(47,31)"/>
<path d="M0 0 C8.91 0 17.82 0 27 0 C26 4 26 4 23.89453125 6.265625 C20.14642174 8.5114558 17.98765687 8.23226058 13.6875 7.75 C12.43324219 7.62109375 11.17898437 7.4921875 9.88671875 7.359375 C8.93410156 7.24078125 7.98148438 7.1221875 7 7 C7 8.98 7 10.96 7 13 C4.69 13 2.38 13 0 13 C0 15.31 0 17.62 0 20 C-2.31 20 -4.62 20 -7 20 C-7.33 17.36 -7.66 14.72 -8 12 C-7.01 11.67 -6.02 11.34 -5 11 C-5 10.01 -5 9.02 -5 8 C-3.35 7.67 -1.7 7.34 0 7 C0 4.69 0 2.38 0 0 Z " fill="#BDEBFE" transform="translate(42,6)"/>
<path d="M0 0 C8.91 0 17.82 0 27 0 C27 6 27 6 25.6875 7.6796875 C24.125 8.78645833 22.5625 9.89322917 21 11 C21 8.36 21 5.72 21 3 C20.45859375 3.49113281 19.9171875 3.98226563 19.359375 4.48828125 C16.42758717 6.3667612 14.69700309 6.31060725 11.25 6.1875 C9.77273437 6.14689453 9.77273437 6.14689453 8.265625 6.10546875 C7.14414063 6.05326172 7.14414063 6.05326172 6 6 C6.06960937 6.73605469 6.13921875 7.47210938 6.2109375 8.23046875 C6.26507812 9.20628906 6.31921875 10.18210937 6.375 11.1875 C6.44460937 12.15042969 6.51421875 13.11335938 6.5859375 14.10546875 C6 17 6 17 0 22 C0 14.74 0 7.48 0 0 Z " fill="#C2EFFF" transform="translate(8,6)"/>
<path d="M0 0 C2.31 0 4.62 0 7 0 C7 8.91 7 17.82 7 27 C0.4 27 -6.2 27 -13 27 C-8.54569103 21.8033062 -4.11907328 17.08141275 0.93945312 12.5390625 C4.75594143 8.90064489 5.75806593 6.23100688 6 1 C4.02 1 2.04 1 0 1 C0 0.67 0 0.34 0 0 Z " fill="#6298C0" transform="translate(69,46)"/>
<path d="M0 0 C0 0.66 0 1.32 0 2 C1.98 2 3.96 2 6 2 C6.56708706 4.84315076 6.72351605 6.23754034 6 9 C3.3263682 12.70838795 0.10491228 15.77956992 -3.1875 18.9375 C-4.48397461 20.24944336 -4.48397461 20.24944336 -5.80664062 21.58789062 C-12.27411611 27.93642403 -12.27411611 27.93642403 -15.7902832 28.24438477 C-16.88409302 28.12341431 -16.88409302 28.12341431 -18 28 C-17.62488281 27.56429687 -17.24976563 27.12859375 -16.86328125 26.6796875 C-14.35997592 23.7665211 -11.86895664 20.84850112 -9.4375 17.875 C-7.07026174 15.08287283 -4.62254388 12.54761406 -2 10 C-3.32 10 -4.64 10 -6 10 C-6.29296875 3.9453125 -6.29296875 3.9453125 -6 2 C-3 0 -3 0 0 0 Z " fill="#85C3ED" transform="translate(69,45)"/>
<path d="M0 0 C0.66 0 1.32 0 2 0 C2.103125 0.61875 2.20625 1.2375 2.3125 1.875 C2.87525373 4.36526484 2.87525373 4.36526484 6 6 C4.02 6 2.04 6 0 6 C0 7.98 0 9.96 0 12 C-2.64 12 -5.28 12 -8 12 C-7.87625 13.216875 -7.7525 14.43375 -7.625 15.6875 C-7.4140625 17.76171875 -7.4140625 17.76171875 -8 20 C-9.98 21.65 -11.96 23.3 -14 25 C-14 18.73 -14 12.46 -14 6 C-11.20052083 5.86979167 -8.40104167 5.73958333 -5.6015625 5.609375 C-2.85860431 5.28350693 -2.85860431 5.28350693 -1.7109375 3.015625 C-1.35902344 2.01789062 -1.35902344 2.01789062 -1 1 C-0.67 0.67 -0.34 0.34 0 0 Z " fill="#93CDF3" transform="translate(22,34)"/>
<path d="M0 0 C1.81242052 -0.02687279 3.62495233 -0.04633715 5.4375 -0.0625 C6.44683594 -0.07410156 7.45617187 -0.08570313 8.49609375 -0.09765625 C11 0 11 0 12 1 C12.07226502 2.85287502 12.0838122 4.70833878 12.0625 6.5625 C12.05347656 7.57441406 12.04445313 8.58632813 12.03515625 9.62890625 C12.02355469 10.41136719 12.01195313 11.19382812 12 12 C11.34 11.67 10.68 11.34 10 11 C9.375 8.4375 9.375 8.4375 9 6 C6.16848027 5.58190799 6.16848027 5.58190799 3 6 C0.89816542 8.2094183 0.89816542 8.2094183 -1 11 C-3.87289293 14.03705824 -6.06804219 15.91370761 -10.375 16.3125 C-11.24125 16.209375 -12.1075 16.10625 -13 16 C-13 15.34 -13 14.68 -13 14 C-11.35 13.67 -9.7 13.34 -8 13 C-7.67 10.69 -7.34 8.38 -7 6 C-4.69 6 -2.38 6 0 6 C0 4.02 0 2.04 0 0 Z " fill="#1F1F1E" transform="translate(49,13)"/>
<path d="M0 0 C2.31 0 4.62 0 7 0 C7 1.65 7 3.3 7 5 C15.91 5 24.82 5 34 5 C33.34 6.32 32.68 7.64 32 9 C28.08372337 9.14522934 24.16813847 9.23404757 20.25 9.3125 C18.58324219 9.3753418 18.58324219 9.3753418 16.8828125 9.43945312 C8.60747264 9.56408174 8.60747264 9.56408174 5.375 6.5625 C4.92125 5.716875 4.4675 4.87125 4 4 C1.88339573 2.68834743 1.88339573 2.68834743 0 2 C0 1.34 0 0.68 0 0 Z " fill="#24292D" transform="translate(8,68)"/>
<path d="M0 0 C0.66 0 1.32 0 2 0 C2 1.98 2 3.96 2 6 C1.01 6.33 0.02 6.66 -1 7 C-1.33 7.99 -1.66 8.98 -2 10 C-2.66 10 -3.32 10 -4 10 C-4.2475 10.61875 -4.495 11.2375 -4.75 11.875 C-6.23740369 14.40358627 -7.43678009 14.71839004 -10 16 C-11.09166275 17.93330603 -11.09166275 17.93330603 -12 20 C-13.625 21.75 -13.625 21.75 -15 23 C-15.99 22.67 -16.98 22.34 -18 22 C-17.42619583 18.35614149 -16.0621691 16.7163968 -13.4375 14.1796875 C-12.72335938 13.47972656 -12.00921875 12.77976562 -11.2734375 12.05859375 C-10.52320313 11.33800781 -9.77296875 10.61742187 -9 9.875 C-7.51876101 8.43702744 -6.03949255 6.99702138 -4.5625 5.5546875 C-3.90378906 4.92030762 -3.24507812 4.28592773 -2.56640625 3.63232422 C-0.9105859 2.06835077 -0.9105859 2.06835077 0 0 Z " fill="#B4E5FE" transform="translate(73,18)"/>
<path d="M0 0 C0.66 0 1.32 0 2 0 C3.625 2 3.625 2 5 4 C3.71034824 5.37562854 2.37310707 6.70766393 1 8 C0.34 8 -0.32 8 -1 8 C-1 8.66 -1 9.32 -1 10 C-1.66 10 -2.32 10 -3 10 C-3.33 10.99 -3.66 11.98 -4 13 C-5.64639965 14.35827971 -7.31295807 15.69254251 -9 17 C-9.33 17.66 -9.66 18.32 -10 19 C-10.66 19 -11.32 19 -12 19 C-12.33 19.99 -12.66 20.98 -13 22 C-14.98 22 -16.96 22 -19 22 C-17.38405168 19.95880212 -15.7143618 17.95927063 -14 16 C-13.34 16 -12.68 16 -12 16 C-11.34 14.68 -10.68 13.36 -10 12 C-9.34 12 -8.68 12 -8 12 C-7.67 11.01 -7.34 10.02 -7 9 C-6.195625 8.38125 -5.39125 7.7625 -4.5625 7.125 C-1.82297246 4.85319667 -1.0234817 3.34957646 0 0 Z " fill="#92CDF4" transform="translate(39,51)"/>
<path d="M0 0 C4.29974561 6.86599695 2.56775527 18.30374684 1 26 C-0.1875 28.5 -0.1875 28.5 -2 30 C-5.1875 30.25 -5.1875 30.25 -8 30 C-8 28.02 -8 26.04 -8 24 C-5.69 24 -3.38 24 -1 24 C-1.00523682 23.30849854 -1.01047363 22.61699707 -1.01586914 21.90454102 C-1.036575 18.79053648 -1.04963963 15.67654639 -1.0625 12.5625 C-1.07087891 11.47388672 -1.07925781 10.38527344 -1.08789062 9.26367188 C-1.09111328 8.22919922 -1.09433594 7.19472656 -1.09765625 6.12890625 C-1.10289307 5.17056885 -1.10812988 4.21223145 -1.11352539 3.22485352 C-1 1 -1 1 0 0 Z " fill="#0A0A0A" transform="translate(77,16)"/>
<path d="M0 0 C0 4.62 0 9.24 0 14 C-4.62 14 -9.24 14 -14 14 C-2.28571429 0 -2.28571429 0 0 0 Z " fill="#87C3ED" transform="translate(75,59)"/>
<path d="M0 0 C-1.53218685 3.63061667 -3.7183144 5.9863773 -6.5 8.75 C-7.69109375 9.94882813 -7.69109375 9.94882813 -8.90625 11.171875 C-11 13 -11 13 -13 13 C-14.56390977 5.90225564 -14.56390977 5.90225564 -12.125 2 C-7.96832031 -0.660275 -4.79883879 -0.47047439 0 0 Z " fill="#67A7D7" transform="translate(62,60)"/>
<path d="M0 0 C0 3.63 0 7.26 0 11 C-1.093125 11.309375 -2.18625 11.61875 -3.3125 11.9375 C-8.05607492 12.91484105 -8.05607492 12.91484105 -11.1875 16.0625 C-11.455625 16.701875 -11.72375 17.34125 -12 18 C-13.65 18 -15.3 18 -17 18 C-15.86819855 14.60459566 -14.89642801 13.84642148 -12.1875 11.625 C-9.04702093 8.96680879 -6.47710924 6.30281232 -4 3 C-1.20689655 0 -1.20689655 0 0 0 Z " fill="#A0D6F8" transform="translate(75,28)"/>
<path d="M0 0 C1.79244141 0.01740234 1.79244141 0.01740234 3.62109375 0.03515625 C5.41740234 0.04869141 5.41740234 0.04869141 7.25 0.0625 C8.17683594 0.07410156 9.10367188 0.08570313 10.05859375 0.09765625 C9.29022681 4.3015949 7.51026778 5.61953131 4.05859375 8.09765625 C3.72859375 7.76765625 3.39859375 7.43765625 3.05859375 7.09765625 C1.04264793 6.86337847 -0.97988025 6.68429501 -3.00390625 6.53515625 C-4.10863281 6.45136719 -5.21335938 6.36757812 -6.3515625 6.28125 C-7.20621094 6.22066406 -8.06085937 6.16007813 -8.94140625 6.09765625 C-2.94140625 0.09765625 -2.94140625 0.09765625 0 0 Z " fill="#C5F1FE" transform="translate(58.94140625,5.90234375)"/>
<path d="M0 0 C1.51400391 0.01740234 1.51400391 0.01740234 3.05859375 0.03515625 C4.07050781 0.04417969 5.08242188 0.05320312 6.125 0.0625 C7.29869141 0.07990234 7.29869141 0.07990234 8.49609375 0.09765625 C8.49609375 2.07765625 8.49609375 4.05765625 8.49609375 6.09765625 C10.80609375 6.09765625 13.11609375 6.09765625 15.49609375 6.09765625 C15.16609375 8.07765625 14.83609375 10.05765625 14.49609375 12.09765625 C7.72686298 8.6515024 7.72686298 8.6515024 6.55859375 5.84765625 C6.53796875 5.27015625 6.51734375 4.69265625 6.49609375 4.09765625 C2.15425173 4.28229991 2.15425173 4.28229991 -1.50390625 6.09765625 C-1.54471408 8.09723989 -1.54644981 10.09810879 -1.50390625 12.09765625 C-2.16390625 12.09765625 -2.82390625 12.09765625 -3.50390625 12.09765625 C-3.53077904 10.28523573 -3.5502434 8.47270392 -3.56640625 6.66015625 C-3.57800781 5.65082031 -3.58960938 4.64148438 -3.6015625 3.6015625 C-3.46988459 0.22534083 -3.37622167 0.13167791 0 0 Z " fill="#313131" transform="translate(19.50390625,12.90234375)"/>
<path d="M0 0 C0.33 0 0.66 0 1 0 C1 2.31 1 4.62 1 7 C2.98 7 4.96 7 7 7 C7.33 8.98 7.66 10.96 8 13 C9.65 13.33 11.3 13.66 13 14 C13 17.63 13 21.26 13 25 C12 23 11 21 10 19 C9.195625 18.731875 8.39125 18.46375 7.5625 18.1875 C5 17 5 17 3.8125 14.4375 C3.544375 13.633125 3.27625 12.82875 3 12 C2.34 11.67 1.68 11.34 1 11 C1 10.34 1 9.68 1 9 C0.34 9 -0.32 9 -1 9 C-0.67 6.03 -0.34 3.06 0 0 Z " fill="#1E1E1E" transform="translate(48,33)"/>
<path d="M0 0 C0.66 0.33 1.32 0.66 2 1 C1.67 1.33 1.34 1.66 1 2 C0.95907063 4.33297433 0.95758277 6.66705225 1 9 C2.65 7.68 4.3 6.36 6 5 C7.32 5.66 8.64 6.32 10 7 C9.34 7 8.68 7 8 7 C8 7.99 8 8.98 8 10 C4.5647952 12.29013653 3.014669 12.17842973 -1 12 C-1 10.02 -1 8.04 -1 6 C-5.29 6 -9.58 6 -14 6 C-14 10.29 -14 14.58 -14 19 C-14.33 19 -14.66 19 -15 19 C-15 14.38 -15 9.76 -15 5 C-12.40125 4.87625 -12.40125 4.87625 -9.75 4.75 C-5.1680133 4.36621533 -5.1680133 4.36621533 -1.3125 1.9375 C-0.6628125 0.9784375 -0.6628125 0.9784375 0 0 Z " fill="#92C1DE" transform="translate(29,7)"/>
<path d="M0 0 C2.31 0 4.62 0 7 0 C7 2.31 7 4.62 7 7 C7.66 7.33 8.32 7.66 9 8 C4.25 7.125 4.25 7.125 2 6 C1.690625 6.639375 1.38125 7.27875 1.0625 7.9375 C0 10 0 10 -1 11 C-2.78071246 11.08726223 -4.5648314 11.10699041 -6.34765625 11.09765625 C-7.42724609 11.09443359 -8.50683594 11.09121094 -9.61914062 11.08789062 C-10.75544922 11.07951172 -11.89175781 11.07113281 -13.0625 11.0625 C-14.20267578 11.05798828 -15.34285156 11.05347656 -16.51757812 11.04882812 C-19.34510351 11.03699747 -22.1725264 11.0205141 -25 11 C-25 10.67 -25 10.34 -25 10 C-17.41 9.67 -9.82 9.34 -2 9 C-1.34 6.03 -0.68 3.06 0 0 Z " fill="#121111" transform="translate(42,67)"/>
<path d="M0 0 C2.31 0 4.62 0 7 0 C7 2.31 7 4.62 7 7 C6.67 6.34 6.34 5.68 6 5 C5.34 5 4.68 5 4 5 C3.8453125 6.175625 3.8453125 6.175625 3.6875 7.375 C3 10 3 10 0 12 C-0.33 11.34 -0.66 10.68 -1 10 C-2.65 10.66 -4.3 11.32 -6 12 C-6 10.35 -6 8.7 -6 7 C-4.02 7 -2.04 7 0 7 C0 4.69 0 2.38 0 0 Z " fill="#81B5D7" transform="translate(35,46)"/>
<path d="M0 0 C0.33 0 0.66 0 1 0 C2.12881679 5.1230916 2.12881679 5.1230916 2 8 C-0.1875 10.6875 -0.1875 10.6875 -3 13 C-3.70125 13.9075 -4.4025 14.815 -5.125 15.75 C-7 18 -7 18 -10 19 C-10.33 20.98 -10.66 22.96 -11 25 C-11.33 25 -11.66 25 -12 25 C-12 21.37 -12 17.74 -12 14 C-10.35 13.67 -8.7 13.34 -7 13 C-6.67 11.02 -6.34 9.04 -6 7 C-4.02 7 -2.04 7 0 7 C0 4.69 0 2.38 0 0 Z " fill="#222222" transform="translate(28,33)"/>
<path d="M0 0 C0.375 2.6875 0.375 2.6875 0 6 C-1.823983 8.06398076 -3.72763839 9.39041053 -6 11 C-6 8.36 -6 5.72 -6 3 C-6.556875 3.495 -7.11375 3.99 -7.6875 4.5 C-10.38162983 6.24754367 -11.85375007 6.26218749 -15 6 C-10.88012059 -0.59180706 -7.51260325 -0.78772927 0 0 Z " fill="#C7F3FF" transform="translate(35,6)"/>
<path d="M0 0 C0 1.32 0 2.64 0 4 C-0.99 4 -1.98 4 -3 4 C-2.87625 5.216875 -2.7525 6.43375 -2.625 7.6875 C-2.59667653 10.34518579 -2.64153026 11.55872585 -4.3359375 13.64453125 C-6 15 -6 15 -9 17 C-9.86097841 7.31877615 -9.86097841 7.31877615 -6.625 3.4375 C-2.92307692 0 -2.92307692 0 0 0 Z " fill="#7FBDE9" transform="translate(17,42)"/>
<path d="M0 0 C1.98 0.99 1.98 0.99 4 2 C3.67 3.32 3.34 4.64 3 6 C7.46142806 4.78324689 9.9106238 3.43264022 13 0 C13.33 0 13.66 0 14 0 C14 1.65 14 3.3 14 5 C12.35 5.66 10.7 6.32 9 7 C8.67 9.64 8.34 12.28 8 15 C9.32 14.67 10.64 14.34 12 14 C12 17 12 17 10.625 18.6875 C9 20 9 20 7 20 C7 15.71 7 11.42 7 7 C5.02 7 3.04 7 1 7 C0 6 0 6 -0.0625 2.9375 C-0.041875 1.968125 -0.02125 0.99875 0 0 Z " fill="#7FB7DE" transform="translate(55,40)"/>
<path d="M0 0 C2.97 0 5.94 0 9 0 C9 2.31 9 4.62 9 7 C6.36 7 3.72 7 1 7 C0.67 8.32 0.34 9.64 0 11 C-0.72795155 6.79405774 -1.04973814 4.19895255 0 0 Z " fill="#0A0A09" transform="translate(6,33)"/>
<path d="M0 0 C0.28875 0.639375 0.5775 1.27875 0.875 1.9375 C1.82823451 4.15206079 1.82823451 4.15206079 4 5 C2.80100302 8.0831351 1.52299523 11.06279492 0 14 C-1.98 14 -3.96 14 -6 14 C-6 11.69 -6 9.38 -6 7 C-4.02 7 -2.04 7 0 7 C0 4.69 0 2.38 0 0 Z " fill="#8DC2E4" transform="translate(55,26)"/>
<path d="M0 0 C0.33 0 0.66 0 1 0 C1 1.98 1 3.96 1 6 C2.98 6 4.96 6 7 6 C7 6.33 7 6.66 7 7 C5.35 7 3.7 7 2 7 C2 7.66 2 8.32 2 9 C6.60742865 7.78955868 6.60742865 7.78955868 11 6 C9.125 9.875 9.125 9.875 8 11 C1.47457627 11.23728814 1.47457627 11.23728814 -1 10 C-1.28875 9.175 -1.5775 8.35 -1.875 7.5 C-2.72882071 4.81740446 -2.72882071 4.81740446 -5.125 4.1875 C-5.74375 4.125625 -6.3625 4.06375 -7 4 C-6.67 3.01 -6.34 2.02 -6 1 C-4.35 1.99 -2.7 2.98 -1 4 C-0.67 2.68 -0.34 1.36 0 0 Z " fill="#131313" transform="translate(34,20)"/>
<path d="M0 0 C0.33 0.66 0.66 1.32 1 2 C3.31 2 5.62 2 8 2 C8 3.98 8 5.96 8 8 C6.68 7.67 5.36 7.34 4 7 C4 5.68 4 4.36 4 3 C3.27683594 3.6496875 3.27683594 3.6496875 2.5390625 4.3125 C1.59160156 5.1478125 1.59160156 5.1478125 0.625 6 C-0.00148438 6.556875 -0.62796875 7.11375 -1.2734375 7.6875 C-3 9 -3 9 -5 9 C-5 7.68 -5 6.36 -5 5 C-4.34 5 -3.68 5 -3 5 C-3 4.34 -3 3.68 -3 3 C-2.34 3 -1.68 3 -1 3 C-0.67 2.01 -0.34 1.02 0 0 Z " fill="#AEE2FE" transform="translate(20,31)"/>
<path d="M0 0 C2.31 0 4.62 0 7 0 C7 2.31 7 4.62 7 7 C8.32 7.33 9.64 7.66 11 8 C10.34 8.804375 9.68 9.60875 9 10.4375 C6.89745486 12.58961915 6.89745486 12.58961915 7 14 C4.69 14 2.38 14 0 14 C0.804375 13.154375 1.60875 12.30875 2.4375 11.4375 C5.21628662 8.1484842 5.74117776 5.31370396 6 1 C4.02 1 2.04 1 0 1 C0 0.67 0 0.34 0 0 Z " fill="#6196BD" transform="translate(42,53)"/>
<path d="M0 0 C3.75 -0.375 3.75 -0.375 7 0 C7 1.98 7 3.96 7 6 C3.37 6 -0.26 6 -4 6 C-2.4375 3 -2.4375 3 0 0 Z " fill="#83C0EB" transform="translate(35,67)"/>
<path d="M0 0 C0.6875 1.75 0.6875 1.75 1 4 C-0.0625 6.25 -0.0625 6.25 -2 8 C-5.1875 8.25 -5.1875 8.25 -8 8 C-8 6.02 -8 4.04 -8 2 C-6.865625 1.855625 -5.73125 1.71125 -4.5625 1.5625 C-1.19222799 1.38828522 -1.19222799 1.38828522 0 0 Z " fill="#080807" transform="translate(77,38)"/>
<path d="M0 0 C0.66 0 1.32 0 2 0 C2.4375 2.0625 2.4375 2.0625 2 5 C-0.00597159 7.72436362 -2.16161225 10.14235598 -5 12 C-7.234375 11.6953125 -7.234375 11.6953125 -9 11 C-7.71937515 9.2925002 -6.38232443 7.62626404 -5 6 C-4.34 6 -3.68 6 -3 6 C-2.690625 5.38125 -2.38125 4.7625 -2.0625 4.125 C-1.375 2.75 -0.6875 1.375 0 0 Z " fill="#88C6F0" transform="translate(46,56)"/>
<path d="M0 0 C-0.99 0.495 -0.99 0.495 -2 1 C-2.33 1.99 -2.66 2.98 -3 4 C-4.8125 5.82421875 -4.8125 5.82421875 -7 7.6875 C-7.721875 8.31011719 -8.44375 8.93273438 -9.1875 9.57421875 C-11 11 -11 11 -12 11 C-12.47345469 8.31709011 -12.4187334 6.62083042 -10.875 4.33203125 C-7.45350277 0.58085851 -5.27162339 -0.75308906 0 0 Z " fill="#BEECFE" transform="translate(75,13)"/>
<path d="M0 0 C0 0.66 0 1.32 0 2 C-0.66 2 -1.32 2 -2 2 C-2.226875 2.556875 -2.45375 3.11375 -2.6875 3.6875 C-4.35896766 6.63246684 -6.55276352 8.68156544 -9 11 C-9.33 10.01 -9.66 9.02 -10 8 C-10.66 7.67 -11.32 7.34 -12 7 C-11.34 7 -10.68 7 -10 7 C-10 6.34 -10 5.68 -10 5 C-4.76190476 0 -4.76190476 0 0 0 Z " fill="#73B3E2" transform="translate(48,54)"/>
<path d="M0 0 C-3.3810038 4.13621084 -6.66590534 7.81316569 -11 11 C-11.47676838 8.29831253 -11.42826678 6.61572362 -9.83984375 4.33203125 C-6.76167816 1.01768927 -4.76137383 -0.84024244 0 0 Z " fill="#92CCF3" transform="translate(26,61)"/>
<path d="M0 0 C0.33 0.99 0.66 1.98 1 3 C1.66 3.33 2.32 3.66 3 4 C1.625 5.5 1.625 5.5 0 7 C-0.66 7 -1.32 7 -2 7 C-2.33 7.99 -2.66 8.98 -3 10 C-4.98 10 -6.96 10 -9 10 C-7.38405168 7.95880212 -5.7143618 5.95927063 -4 4 C-3.34 4 -2.68 4 -2 4 C-1.34 2.68 -0.68 1.36 0 0 Z " fill="#8AC5EF" transform="translate(29,63)"/>
<path d="M0 0 C2.31 0 4.62 0 7 0 C7 2.31 7 4.62 7 7 C6.34 6.67 5.68 6.34 5 6 C4.67 6.66 4.34 7.32 4 8 C3.34 8 2.68 8 2 8 C2 8.66 2 9.32 2 10 C1.34 10 0.68 10 0 10 C-0.75 8.25 -0.75 8.25 -1 6 C0.9375 3.75 0.9375 3.75 3 2 C2.01 1.34 1.02 0.68 0 0 Z " fill="#93CDF3" transform="translate(15,26)"/>
<path d="M0 0 C2.475 0.99 2.475 0.99 5 2 C4.0409375 3.1446875 4.0409375 3.1446875 3.0625 4.3125 C0.85767219 6.88246713 0.85767219 6.88246713 0 10 C1.32 9.67 2.64 9.34 4 9 C4 9.99 4 10.98 4 12 C2.02 12 0.04 12 -2 12 C-2.33 9.36 -2.66 6.72 -3 4 C-2.01 3.67 -1.02 3.34 0 3 C0 2.01 0 1.02 0 0 Z " fill="#BDECFF" transform="translate(37,14)"/>
<path d="M0 0 C0 0.66 0 1.32 0 2 C0.66 2.33 1.32 2.66 2 3 C1.38125 3.2475 0.7625 3.495 0.125 3.75 C-2.37818306 5.22246063 -2.83045281 6.41028837 -4 9 C-4.99 9.495 -4.99 9.495 -6 10 C-6.29296875 3.9453125 -6.29296875 3.9453125 -6 2 C-3 0 -3 0 0 0 Z " fill="#9DD5F9" transform="translate(69,45)"/>
<path d="M0 0 C-1.44518781 3.3721049 -3.12350453 5.69880363 -6 8 C-8.75 8.25 -8.75 8.25 -11 8 C-8.13593433 2.70147851 -6.25023086 0 0 0 Z " fill="#7DBCE7" transform="translate(75,47)"/>
<path d="M0 0 C0.721875 0.103125 1.44375 0.20625 2.1875 0.3125 C-2.31115471 6.99232063 -2.31115471 6.99232063 -5.9921875 7.77734375 C-8.1875 7.75 -8.1875 7.75 -11.8125 7.3125 C-11.255625 7.085625 -10.69875 6.85875 -10.125 6.625 C-7.59482498 5.34255287 -7.59482498 5.34255287 -5.375 2.6875 C-2.8125 0.3125 -2.8125 0.3125 0 0 Z " fill="#63A0D0" transform="translate(19.8125,59.6875)"/>
<path d="M0 0 C0.66 0 1.32 0 2 0 C2 1.98 2 3.96 2 6 C1.01 6.33 0.02 6.66 -1 7 C-1.33 7.99 -1.66 8.98 -2 10 C-2.99 10.33 -3.98 10.66 -5 11 C-4.54961229 6.15833214 -3.40027839 3.50331713 0 0 Z " fill="#BAE9FE" transform="translate(73,18)"/>
<path d="M0 0 C0.721875 0.103125 1.44375 0.20625 2.1875 0.3125 C1.25475891 1.44144876 0.31609878 2.56550876 -0.625 3.6875 C-1.14707031 4.31398438 -1.66914062 4.94046875 -2.20703125 5.5859375 C-3.8125 7.3125 -3.8125 7.3125 -6.8125 9.3125 C-7.625 7.625 -7.625 7.625 -7.8125 5.3125 C-5.38938332 2.17670194 -4.02309723 0.4470108 0 0 Z " fill="#89C4EE" transform="translate(55.8125,59.6875)"/>
<path d="M0 0 C0.66 1.32 1.32 2.64 2 4 C3.65 3.34 5.3 2.68 7 2 C6.8125 4.375 6.8125 4.375 6 7 C3.4375 8.3125 3.4375 8.3125 1 9 C0 8 0 8 -0.09765625 6.15234375 C-0.06510417 4.1015625 -0.03255208 2.05078125 0 0 Z " fill="#659FCA" transform="translate(28,53)"/>
<path d="M0 0 C0.3125 2.1875 0.3125 2.1875 0 5 C-2.375 7.8125 -2.375 7.8125 -5 10 C-5.66 10 -6.32 10 -7 10 C-6.69120892 6.39743742 -4.47407556 0 0 0 Z " fill="#A4D8FA" transform="translate(75,49)"/>
<path d="M0 0 C3.63 0 7.26 0 11 0 C11 0.99 11 1.98 11 3 C7.37 3.33 3.74 3.66 0 4 C0 2.68 0 1.36 0 0 Z " fill="#403F3F" transform="translate(50,14)"/>
<path d="M0 0 C2.70108504 0.090916 5.36930311 0.23740766 8.0625 0.4375 C9.20041992 0.51581055 9.20041992 0.51581055 10.36132812 0.59570312 C12.24121722 0.72575835 14.12065685 0.86228038 16 1 C16 1.33 16 1.66 16 2 C11.71 2 7.42 2 3 2 C3 3.98 3 5.96 3 8 C2.67 6.68 2.34 5.36 2 4 C1.01 4.33 0.02 4.66 -1 5 C-1 1 -1 1 0 0 Z " fill="#83ADC8" transform="translate(46,11)"/>
<path d="M0 0 C2.97 0 5.94 0 9 0 C8.67 1.32 8.34 2.64 8 4 C7.01 4.495 7.01 4.495 6 5 C5.67 4.34 5.34 3.68 5 3 C3.35 3.66 1.7 4.32 0 5 C0 3.35 0 1.7 0 0 Z " fill="#85BCE2" transform="translate(29,53)"/>
<path d="M0 0 C0 2.31 0 4.62 0 7 C-2.31 7 -4.62 7 -7 7 C-6.34 6.34 -5.68 5.68 -5 5 C-5.3185177 2.89179203 -5.3185177 2.89179203 -6 1 C-1.125 0 -1.125 0 0 0 Z " fill="#282D31" transform="translate(15,33)"/>
<path d="M0 0 C0.103125 0.61875 0.20625 1.2375 0.3125 1.875 C0.87525373 4.36526484 0.87525373 4.36526484 4 6 C2.02 6 0.04 6 -2 6 C-2 7.98 -2 9.96 -2 12 C-2.33 12 -2.66 12 -3 12 C-3 9.36 -3 6.72 -3 4 C-3.66 3.67 -4.32 3.34 -5 3 C-2.25 0 -2.25 0 0 0 Z " fill="#7BADCD" transform="translate(24,34)"/>
<path d="M0 0 C1.2065625 0.0309375 1.2065625 0.0309375 2.4375 0.0625 C-0.55731865 4.29047927 -0.55731865 4.29047927 -2.5625 6.0625 C-5.875 6.4375 -5.875 6.4375 -8.5625 6.0625 C-2.5625 0.0625 -2.5625 0.0625 0 0 Z " fill="#C7F2FF" transform="translate(58.5625,5.9375)"/>
<path d="M0 0 C1.32 0.66 2.64 1.32 4 2 C1.75 4.5 1.75 4.5 -1 7 C-2.32 7 -3.64 7 -5 7 C-3.70700306 4.11562221 -2.34058637 2.12780579 0 0 Z " fill="#97CEF3" transform="translate(13,59)"/>
<path d="M0 0 C0.33 0 0.66 0 1 0 C2.14507772 5.19689119 2.14507772 5.19689119 2 8 C-0.4375 11 -0.4375 11 -3 13 C-3.66 12.67 -4.32 12.34 -5 12 C-5 10.68 -5 9.36 -5 8 C-3.35 8 -1.7 8 0 8 C0 5.36 0 2.72 0 0 Z " fill="#2D3032" transform="translate(28,33)"/>
<path d="M0 0 C0.33 0.66 0.66 1.32 1 2 C1.99 2.33 2.98 2.66 4 3 C2.35 4.65 0.7 6.3 -1 8 C-1.99 7.67 -2.98 7.34 -4 7 C-3.43628586 3.73045798 -2.50037734 2.17424117 0 0 Z " fill="#AADEFC" transform="translate(59,33)"/>
<path d="M0 0 C0.33 0 0.66 0 1 0 C1.36923077 5.53846154 1.36923077 5.53846154 -0.5 7.875 C-1.2425 8.431875 -1.2425 8.431875 -2 9 C-3.32 8.34 -4.64 7.68 -6 7 C-5.02433888 5.83040013 -4.044375 4.66438823 -3.0625 3.5 C-2.51722656 2.8503125 -1.97195312 2.200625 -1.41015625 1.53125 C-0.71212891 0.77328125 -0.71212891 0.77328125 0 0 Z " fill="#AEE1FE" transform="translate(74,28)"/>
<path d="M0 0 C0.99 0 1.98 0 3 0 C2.69381595 3.67420866 2.24228216 4.78135513 -0.5625 7.3125 C-1.366875 7.869375 -2.17125 8.42625 -3 9 C-3.2519555 5.97653399 -3.20421041 4.3597993 -1.6875 1.6875 C-1.130625 1.130625 -0.57375 0.57375 0 0 Z " fill="#BEEDFF" transform="translate(11,19)"/>
<path d="M0 0 C0.99 0 1.98 0 3 0 C2.67 2.97 2.34 5.94 2 9 C1.67 8.01 1.34 7.02 1 6 C-0.32 6.33 -1.64 6.66 -3 7 C-2.25 2.25 -2.25 2.25 0 0 Z " fill="#9ED0EF" transform="translate(40,17)"/>
<path d="M0 0 C0 1.98 0 3.96 0 6 C-0.99 6 -1.98 6 -3 6 C-3.66 7.32 -4.32 8.64 -5 10 C-5.33 10 -5.66 10 -6 10 C-6.3125 7.8125 -6.3125 7.8125 -6 5 C-1.66666667 0 -1.66666667 0 0 0 Z " fill="#A4DAFB" transform="translate(14,13)"/>
<path d="M0 0 C0.721875 0.12375 1.44375 0.2475 2.1875 0.375 C-0.89540155 4.60297927 -0.89540155 4.60297927 -2.8125 6.375 C-5.625 6.75 -5.625 6.75 -7.8125 6.375 C-3.50480769 0.46730769 -3.50480769 0.46730769 0 0 Z " fill="#9ED5F8" transform="translate(22.8125,5.625)"/>
<path d="M0 0 C0.721875 0.12375 1.44375 0.2475 2.1875 0.375 C-0.89540155 4.60297927 -0.89540155 4.60297927 -2.8125 6.375 C-5.625 6.75 -5.625 6.75 -7.8125 6.375 C-3.50480769 0.46730769 -3.50480769 0.46730769 0 0 Z " fill="#CCF5FF" transform="translate(27.8125,5.625)"/>
<path d="M0 0 C0.721875 0.12375 1.44375 0.2475 2.1875 0.375 C-0.89540155 4.60297927 -0.89540155 4.60297927 -2.8125 6.375 C-5.625 6.75 -5.625 6.75 -7.8125 6.375 C-3.50480769 0.46730769 -3.50480769 0.46730769 0 0 Z " fill="#A2D8FA" transform="translate(63.8125,5.625)"/>
<path d="M0 0 C-0.30618405 3.67420866 -0.75771784 4.78135513 -3.5625 7.3125 C-4.366875 7.869375 -5.17125 8.42625 -6 9 C-6.25 6.75 -6.25 6.75 -6 4 C-2.75675676 0 -2.75675676 0 0 0 Z " fill="#94CFF6" transform="translate(14,50)"/>
<path d="M0 0 C1 2 1 2 0.25 4.5625 C-1 7 -1 7 -4 8 C-4.66 7.67 -5.32 7.34 -6 7 C-6.33 7.66 -6.66 8.32 -7 9 C-7 8.01 -7 7.02 -7 6 C-6.34 6 -5.68 6 -5 6 C-4.67 5.01 -4.34 4.02 -4 3 C-1.9375 1.3125 -1.9375 1.3125 0 0 Z " fill="#8BC7EF" transform="translate(63,35)"/>
<path d="M0 0 C1.32 0 2.64 0 4 0 C2.55746343 3.36591866 0.66735273 5.51047079 -2 8 C-2.125 5.125 -2.125 5.125 -2 2 C-1.34 1.34 -0.68 0.68 0 0 Z " fill="#A6DBFC" transform="translate(10,41)"/>
<path d="M0 0 C-3.44615385 4.8 -3.44615385 4.8 -6.25 5.8125 C-7.11625 5.9053125 -7.11625 5.9053125 -8 6 C-8 3 -8 3 -6.8125 1.3125 C-4.44258278 -0.40364695 -2.85974334 -0.23187108 0 0 Z " fill="#A3D9FB" transform="translate(56,6)"/>
<path d="M0 0 C0.9075 0.103125 1.815 0.20625 2.75 0.3125 C-1.55769231 5.23557692 -1.55769231 5.23557692 -5.0625 5.625 C-6.1453125 5.4703125 -6.1453125 5.4703125 -7.25 5.3125 C-4.05 0.38942308 -4.05 0.38942308 0 0 Z " fill="#B8E9FF" transform="translate(17.25,26.6875)"/>
<path d="M0 0 C1.32 0 2.64 0 4 0 C3.125 3.875 3.125 3.875 2 5 C0.33382885 5.04063832 -1.33388095 5.042721 -3 5 C-1.75 2.5 -1.75 2.5 0 0 Z " fill="#64A4D6" transform="translate(70,68)"/>
<path d="M0 0 C0 1.98 0 3.96 0 6 C-2.97 5.505 -2.97 5.505 -6 5 C-6 3.68 -6 2.36 -6 1 C-1.125 0 -1.125 0 0 0 Z " fill="#292D30" transform="translate(49,67)"/>
<path d="M0 0 C0.66 1.32 1.32 2.64 2 4 C0.68 5.32 -0.64 6.64 -2 8 C-2.99 7.67 -3.98 7.34 -5 7 C-1.125 1.125 -1.125 1.125 0 0 Z " fill="#91CCF4" transform="translate(67,56)"/>
<path d="M0 0 C0.33 0 0.66 0 1 0 C1 2.64 1 5.28 1 8 C2.65 8 4.3 8 6 8 C5.67 9.32 5.34 10.64 5 12 C3.02 11.01 1.04 10.02 -1 9 C-0.67 6.03 -0.34 3.06 0 0 Z " fill="#2F3336" transform="translate(48,33)"/>
<path d="M0 0 C0 1.32 0 2.64 0 4 C-0.66 4 -1.32 4 -2 4 C-2.66 5.32 -3.32 6.64 -4 8 C-4.99 7.01 -5.98 6.02 -7 5 C-2.25 0 -2.25 0 0 0 Z " fill="#9BD3F7" transform="translate(75,14)"/>
<path d="M0 0 C5.53846154 -0.36923077 5.53846154 -0.36923077 7.875 1.5 C8.24625 1.995 8.6175 2.49 9 3 C7.35 4.32 5.7 5.64 4 7 C4 6.01 4 5.02 4 4 C3.34 3.67 2.68 3.34 2 3 C2.33 2.67 2.66 2.34 3 2 C2.01 1.34 1.02 0.68 0 0 Z " fill="#74B0DC" transform="translate(22,60)"/>
<path d="M0 0 C1.98 0 3.96 0 6 0 C5.67 0.99 5.34 1.98 5 3 C1.9375 4.1875 1.9375 4.1875 -1 5 C-0.67 3.35 -0.34 1.7 0 0 Z " fill="#232322" transform="translate(71,40)"/>
<path d="M0 0 C1.65 0 3.3 0 5 0 C5 1.98 5 3.96 5 6 C3.68 5.67 2.36 5.34 1 5 C0.67 3.35 0.34 1.7 0 0 Z " fill="#9DD5F7" transform="translate(23,33)"/>
<path d="M0 0 C1.670625 0.061875 1.670625 0.061875 3.375 0.125 C3.375 0.785 3.375 1.445 3.375 2.125 C1.704375 2.5271875 1.704375 2.5271875 0 2.9375 C-3.84340951 3.78309019 -3.84340951 3.78309019 -5.625 7.125 C-5.75 4.75 -5.75 4.75 -5.625 2.125 C-3.625 0.125 -3.625 0.125 0 0 Z " fill="#121110" transform="translate(22.625,16.875)"/>
<path d="M0 0 C2.31 0 4.62 0 7 0 C6.01 0.495 6.01 0.495 5 1 C5 1.66 5 2.32 5 3 C4.34 3 3.68 3 3 3 C3 3.66 3 4.32 3 5 C2.01 5 1.02 5 0 5 C0 3.35 0 1.7 0 0 Z " fill="#B1E3FD" transform="translate(8,6)"/>
<path d="M0 0 C-3.32307692 3.93846154 -3.32307692 3.93846154 -6.75 4.25 C-7.4925 4.1675 -8.235 4.085 -9 4 C-6.3515138 0.02727069 -4.69305063 -1.56435021 0 0 Z " fill="#5B9BD1" transform="translate(65,69)"/>
<path d="M0 0 C0.33 0 0.66 0 1 0 C1 1.98 1 3.96 1 6 C-0.98 6 -2.96 6 -5 6 C-3.35830472 3.97945196 -1.69088222 1.97956942 0 0 Z " fill="#5490C2" transform="translate(41,67)"/>
<path d="M0 0 C0.66 0 1.32 0 2 0 C1.67 2.31 1.34 4.62 1 7 C1.66 7 2.32 7 3 7 C3 7.66 3 8.32 3 9 C3.66 9.33 4.32 9.66 5 10 C4.01 10 3.02 10 2 10 C2 9.34 2 8.68 2 8 C1.34 8 0.68 8 0 8 C-1.125 2.25 -1.125 2.25 0 0 Z " fill="#0B0B0A" transform="translate(46,35)"/>
<path d="M0 0 C1.98 0.99 1.98 0.99 4 2 C3.67 3.32 3.34 4.64 3 6 C4.32 6.33 5.64 6.66 7 7 C5.00045254 7.04254356 2.99958364 7.04080783 1 7 C0 6 0 6 -0.0625 2.9375 C-0.041875 1.968125 -0.02125 0.99875 0 0 Z " fill="#5F8AA8" transform="translate(55,40)"/>
<path d="M0 0 C0.66 0.33 1.32 0.66 2 1 C1.67 1.33 1.34 1.66 1 2 C0.76712992 3.68183948 0.58735834 5.3712416 0.4375 7.0625 C0.31181641 8.44115234 0.31181641 8.44115234 0.18359375 9.84765625 C0.12300781 10.55792969 0.06242187 11.26820312 0 12 C-0.33 12 -0.66 12 -1 12 C-1 9.69 -1 7.38 -1 5 C-1.99 4.67 -2.98 4.34 -4 4 C-2.68 2.68 -1.36 1.36 0 0 Z " fill="#92C0DB" transform="translate(29,7)"/>
<path d="M0 0 C1.32 0.66 2.64 1.32 4 2 C4 2.66 4 3.32 4 4 C1.69 4 -0.62 4 -3 4 C-2.01 2.68 -1.02 1.36 0 0 Z " fill="#568FBD" transform="translate(45,63)"/>
<path d="M0 0 C2.31 0 4.62 0 7 0 C7 2.31 7 4.62 7 7 C6.6596875 6.071875 6.6596875 6.071875 6.3125 5.125 C4.62070165 2.38589791 3.00755839 1.94975528 0 1 C0 0.67 0 0.34 0 0 Z " fill="#86B0CA" transform="translate(15,26)"/>
<path d="M0 0 C0.33 0.99 0.66 1.98 1 3 C2.32 2.67 3.64 2.34 5 2 C5 2.99 5 3.98 5 5 C3.02 5 1.04 5 -1 5 C-0.67 3.35 -0.34 1.7 0 0 Z " fill="#AFE2FC" transform="translate(36,21)"/>
<path d="M0 0 C1.98 0 3.96 0 6 0 C5.67 1.32 5.34 2.64 5 4 C3.68 4 2.36 4 1 4 C0.67 2.68 0.34 1.36 0 0 Z " fill="#373C3E" transform="translate(42,19)"/>
<path d="M0 0 C0.99 0 1.98 0 3 0 C2.67 1.65 2.34 3.3 2 5 C0.35 5 -1.3 5 -3 5 C-1.6875 2.5 -1.6875 2.5 0 0 Z " fill="#89C7F0" transform="translate(67,50)"/>
<path d="M0 0 C0.33 0.99 0.66 1.98 1 3 C1.66 3 2.32 3 3 3 C3 3.66 3 4.32 3 5 C1.02 5 -0.96 5 -3 5 C-1.125 1.125 -1.125 1.125 0 0 Z " fill="#78AED3" transform="translate(52,35)"/>
<path d="M0 0 C0.99 0.33 1.98 0.66 3 1 C2 2.5 2 2.5 0 4 C-2.71846235 4.27345479 -5.25677199 4.13491285 -8 4 C-8 3.67 -8 3.34 -8 3 C-6.865625 2.690625 -5.73125 2.38125 -4.5625 2.0625 C-1.21224901 1.37075469 -1.21224901 1.37075469 0 0 Z " fill="#578EBB" transform="translate(16,63)"/>
<path d="M0 0 C1.65 0 3.3 0 5 0 C3.35 1.98 1.7 3.96 0 6 C-1 3 -1 3 0 0 Z " fill="#ACE0FD" transform="translate(30,6)"/>
</svg>
